<?xml version="1.0" encoding="UTF-8" standalone="no"?>
<svg
   xmlns:dc="http://purl.org/dc/elements/1.1/"
   xmlns:cc="http://creativecommons.org/ns#"
   xmlns:rdf="http://www.w3.org/1999/02/22-rdf-syntax-ns#"
   xmlns:svg="http://www.w3.org/2000/svg"
   xmlns="http://www.w3.org/2000/svg"
   xmlns:sodipodi="http://sodipodi.sourceforge.net/DTD/sodipodi-0.dtd"
   xmlns:inkscape="http://www.inkscape.org/namespaces/inkscape"
   width="160.047mm"
   height="40.021mm"
   viewBox="0 0 160.047 40.021"
   version="1.1"
   id="svg8"
   inkscape:version="1.0.2 (e86c870879, 2021-01-15)"
   sodipodi:docname="sarasa-logo-new.svg">
  <defs
     id="defs2" />
  <sodipodi:namedview
     id="base"
     pagecolor="#ffffff"
     bordercolor="#666666"
     borderopacity="1.0"
     inkscape:pageopacity="0.0"
     inkscape:pageshadow="2"
     inkscape:zoom="0.98994949"
     inkscape:cx="356.6041"
     inkscape:cy="235.74632"
     inkscape:document-units="mm"
     inkscape:current-layer="layer1"
     inkscape:document-rotation="0"
     showgrid="false"
     inkscape:window-width="1920"
     inkscape:window-height="1007"
     inkscape:window-x="0"
     inkscape:window-y="0"
     inkscape:window-maximized="1" />
  <metadata
     id="metadata5">
    <rdf:RDF>
      <cc:Work
         rdf:about="">
        <dc:format>image/svg+xml</dc:format>
        <dc:type
           rdf:resource="http://purl.org/dc/dcmitype/StillImage" />
        <dc:title></dc:title>
      </cc:Work>
    </rdf:RDF>
  </metadata>
  <g
     inkscape:label="Capa 1"
     inkscape:groupmode="layer"
     id="layer1">
    <g
       id="g892"
       transform="translate(-17.661871,-74.750984)">
      <rect
         style="fill:#242530;fill-opacity:1;stroke-width:0.279388"
         id="rect862"
         width="160.047"
         height="40.02103"
         x="17.661871"
         y="74.750984" />
      <g
         id="g866"
         transform="translate(-0.26418966,-0.41797284)">
        <path
           style="fill:#d0d0d0;fill-opacity:1;stroke-width:0.264583"
           d="m 25.85194,105.16239 v -1.85208 h -0.926042 -0.926042 v -1.85209 -1.852079 h 1.852084 1.852083 v 1.852079 1.85209 h 2.778125 2.778125 V 99.606141 95.901975 H 29.556106 25.85194 v -1.852084 -1.852083 h -0.926042 -0.926042 v -3.704167 -3.704166 h 0.926042 0.926042 v -1.852084 -1.852083 h 4.630208 4.630208 v 1.852083 1.852084 h 0.926042 0.926041 v 1.852083 1.852083 h -1.852083 -1.852083 v -1.852083 -1.852083 h -2.778125 -2.778125 v 3.704166 3.704167 h 3.704166 3.704167 v 1.852083 1.852084 h 0.926042 0.926041 v 3.704166 3.704169 h -0.926041 -0.926042 v 1.85208 1.85208 H 30.482148 25.85194 Z m 12.964583,-7.408332 v -9.260417 h 0.926041 0.926042 v -1.852083 -1.852083 h 0.926041 0.926042 v -1.852084 -1.852083 h 2.778125 2.778125 v 1.852083 1.852084 h 0.926041 0.926042 v 1.852083 1.852083 h 0.926042 0.926041 v 9.260417 9.260412 h -1.852083 -1.852083 v -3.70416 -3.704169 h -2.778125 -2.778125 v 3.704169 3.70416 h -1.852083 -1.852083 z m 9.260416,-5.55625 v -3.704167 h -0.926042 -0.926041 v -1.852083 -1.852083 h -0.926042 -0.926042 v 1.852083 1.852083 h -0.926041 -0.926042 v 3.704167 3.704167 h 2.778125 2.778125 z m 5.55625,1.852083 V 81.085308 h 5.556249 5.55625 v 1.852083 1.852084 h 0.926042 0.926041 v 3.704166 3.704167 H 65.67173 64.745688 v 3.704167 3.704166 h 0.926042 0.926041 v 3.704169 3.70416 h -1.852083 -1.852083 v -3.70416 -3.704169 h -0.926042 -0.926041 v -1.852083 -1.852083 h -1.852084 -1.852083 v 5.556245 5.55625 h -1.852083 -1.852083 z m 9.260416,-5.55625 V 84.789475 H 60.11548 57.337355 v 3.704166 3.704167 h 2.778125 2.778125 z m 5.55625,9.260417 v -9.260417 h 0.926041 0.926042 v -1.852083 -1.852083 h 0.926041 0.926042 v -1.852084 -1.852083 h 2.778125 2.778125 v 1.852083 1.852084 h 0.926041 0.926042 v 1.852083 1.852083 h 0.926042 0.926041 v 9.260417 9.260412 h -1.852083 -1.852083 v -3.70416 -3.704169 h -2.778125 -2.778125 v 3.704169 3.70416 h -1.852083 -1.852083 z m 9.260416,-5.55625 v -3.704167 h -0.926042 -0.926041 v -1.852083 -1.852083 h -0.926042 -0.926042 v 1.852083 1.852083 h -0.926041 -0.926042 v 3.704167 3.704167 h 2.778125 2.778125 z m 7.408333,12.964582 v -1.85208 h -0.926042 -0.926041 v -1.85209 -1.852079 h 1.852083 1.852083 v 1.852079 1.85209 h 2.778125 2.778125 V 99.606141 95.901975 H 88.82277 85.118604 v -1.852084 -1.852083 h -0.926042 -0.926041 v -3.704167 -3.704166 h 0.926041 0.926042 v -1.852084 -1.852083 h 4.630208 4.630208 v 1.852083 1.852084 h 0.926042 0.926041 v 1.852083 1.852083 H 94.37902 92.526937 v -1.852083 -1.852083 h -2.778125 -2.778125 v 3.704166 3.704167 h 3.704167 3.704166 v 1.852083 1.852084 h 0.926042 0.926041 v 3.704166 3.704169 H 95.305062 94.37902 v 1.85208 1.85208 h -4.630208 -4.630208 z m 12.964582,-7.408332 v -9.260417 h 0.92604 0.92604 v -1.852083 -1.852083 h 0.926054 0.92604 v -1.852084 -1.852083 h 2.77812 2.77813 v 1.852083 1.852084 h 0.92604 0.92604 v 1.852083 1.852083 h 0.92604 0.92604 v 9.260417 9.260412 h -1.85208 -1.85208 v -3.70416 -3.704169 h -2.77813 -2.77812 v 3.704169 3.70416 h -1.852094 -1.85208 z m 9.260424,-5.55625 v -3.704167 h -0.92604 -0.92605 v -1.852083 -1.852083 h -0.92604 -0.92604 v 1.852083 1.852083 h -0.92604 -0.92604 v 3.704167 3.704167 h 2.77812 2.77813 z m 20.37291,1.852083 V 81.085308 h 4.63021 4.63021 v 1.852083 1.852084 h 0.92604 0.92604 v 1.852083 1.852083 h 0.92604 0.92605 v 5.55625 5.55625 h -0.92605 -0.92604 v 1.852079 1.85209 h -0.92604 -0.92604 v 1.85208 1.85208 h -4.63021 -4.63021 z m 7.40834,7.408329 v -1.852079 h 0.92604 0.92604 v -5.55625 -5.55625 h -0.92604 -0.92604 v -1.852083 -1.852083 h -1.85209 -1.85208 v 9.260416 9.260419 h 1.85208 1.85209 z m 7.40833,-7.408329 V 81.085308 h 5.55625 5.55625 v 1.852083 1.852084 h 0.92604 0.92604 v 3.704166 3.704167 h -0.92604 -0.92604 v 1.852083 1.852084 h 0.92604 0.92604 v 3.704166 3.704169 h -0.92604 -0.92604 v 1.85208 1.85208 h -5.55625 -5.55625 z m 9.26041,5.55625 v -3.704166 h -2.77812 -2.77812 v 3.704166 3.704169 h 2.77812 2.77812 z m 0,-11.1125 v -3.704166 h -2.77812 -2.77812 v 3.704166 3.704167 h 2.77812 2.77812 z"
           id="path857" />
        <path
           style="fill:#00ff33;fill-opacity:1;stroke-width:0.264583"
           d="m 157.34985,110.05718 v -0.66146 h 7.40834 7.40833 v 0.66146 0.66146 h -7.40833 -7.40834 z"
           id="path855" />
      </g>
    </g>
  </g>
</svg>
